<?xml version="1.0" encoding="utf-8"?>
<!-- Generator: Adobe Illustrator 22.1.0, SVG Export Plug-In . SVG Version: 6.00 Build 0)  -->
<svg version="1.1" id="Layer_1" xmlns="http://www.w3.org/2000/svg" xmlns:xlink="http://www.w3.org/1999/xlink" x="0px" y="0px"
	 viewBox="0 0 174 174" style="enable-background:new 0 0 174 174;" xml:space="preserve">
<style type="text/css">
	.st0{fill:#FFFFFF;}
	.st1{clip-path:url(#SVGID_2_);}
	.st2{fill:#898989;}
</style>
<g transform="translate(7405 -5418)">
	<rect x="-7405" y="5418" class="st0" width="174" height="174"/>
	<g transform="translate(-7372 5451)">
		<g>
			<defs>
				<rect id="SVGID_1_" x="-11.8" y="-11.8" width="131.7" height="131.6"/>
			</defs>
			<clipPath id="SVGID_2_">
				<use xlink:href="#SVGID_1_"  style="overflow:visible;"/>
			</clipPath>
			<g transform="translate(0 0)" class="st1">
				<g transform="translate(20.315 12.142)">
					<path class="st2" d="M2.2-9.2C7.7-9.1,12-4.5,11.9,0.9C12,6.4,7.7,10.9,2.2,11c-5.5-0.1-9.8-4.6-9.7-10.1
						C-7.6-4.5-3.2-9.1,2.2-9.2"/>
				</g>
				<g transform="translate(12.6 28.971)">
					<path class="st2" d="M15.1-5.5l-5,3.8l-5-3.8C3.6-5.3-8.1-2.3-9.1,6.7c-0.1,0.9,0.3,1.8,1,2.3c2.2,1.5,7.6,4.4,18.1,4.4
						S26,10.5,28.2,9.1c0.7-0.5,1.1-1.4,1-2.3C28.1-2.3,16.4-5.3,15.1-5.5"/>
				</g>
				<g transform="translate(77.779 45.921)">
					<path class="st2" d="M12.2-1.9c4.1,0.1,7.3,3.5,7.2,7.6c0.1,4.1-3.1,7.5-7.2,7.6C8.1,13.2,4.9,9.8,5,5.7
						C4.9,1.7,8.1-1.7,12.2-1.9"/>
				</g>
				<g transform="translate(71.978 58.664)">
					<path class="st2" d="M21.8,0.9l-3.7,2.9l-3.7-2.9c-1,0.3-9.8,2.5-10.7,9.2c-0.1,0.7,0.1,1.4,0.7,1.8c1.6,1.2,5.7,3.2,13.6,3.2
						s12-2.2,13.6-3.2c0.6-0.4,0.9-1.1,0.7-1.8C31.6,3.2,22.8,1,21.8,0.9"/>
				</g>
				<g transform="translate(28.251 72.85)">
					<path class="st2" d="M1.5,4c4.1,0.1,7.3,3.5,7.2,7.6c0.1,4.1-3.1,7.5-7.2,7.6c-4.1-0.1-7.3-3.5-7.2-7.6C-5.8,7.5-2.6,4.1,1.5,4
						"/>
				</g>
				<g transform="translate(22.45 85.472)">
					<path class="st2" d="M11.1,6.7L7.4,9.6L3.7,6.7C2.7,7-6.1,9.2-6.9,15.9c-0.1,0.7,0.1,1.4,0.7,1.8c1.6,1.2,5.7,3.2,13.6,3.2
						s12-2.2,13.6-3.2c0.6-0.4,0.9-1.1,0.7-1.8C20.9,9.2,12.1,7,11.1,6.7"/>
				</g>
				<g transform="translate(0 -0.001)">
					<path class="st2" d="M119.5,101c-1.3-4.8-6.1-7.7-11-6.7l-4.8-12.1c12.4-7.6,16.2-23.8,8.6-36.2c-7.6-12.4-23.8-16.2-36.2-8.6
						c-3.3,2-6.2,4.8-8.3,8.1l-14.1-7.6c2.3-4.7,3.5-9.8,3.5-15.1c0-3.6-0.6-7.2-1.8-10.7l14.8-3.9c2.1,3.1,5.7,4.7,9.4,4.1
						c5.1-0.8,8.7-5.5,7.9-10.7C86.9-3.6,82.1-7.2,77-6.4c-5,0.8-8.5,5.5-7.9,10.5L54,8.2C48.4-4,36.1-11.8,22.7-11.8
						c-19,0-34.5,15.5-34.5,34.5c0,19,15.5,34.5,34.5,34.5h0.9l1.2,10.5C10.5,70.6,1.3,84.4,4.1,98.7c2.8,14.2,16.7,23.5,30.9,20.6
						c12.3-2.5,21.1-13.3,21.1-25.8c0-3.8-0.8-7.6-2.5-11.1l14.3-8c4.9,7.3,13,11.7,21.8,11.7c3.5,0,6.9-0.7,10.1-2l4.7,12
						c-4.1,3.2-4.8,9.1-1.6,13.2c3.2,4.1,9.1,4.8,13.2,1.6C119.2,108.5,120.5,104.6,119.5,101 M-6.9,22.7C-6.9,6.4,6.4-6.8,22.7-6.8
						C39-6.8,52.2,6.4,52.2,22.7C52.2,39,39,52.2,22.7,52.2C6.4,52.2-6.9,39-6.9,22.7 M29.9,114.8c-11.8,0-21.4-9.6-21.4-21.4
						c0-11.8,9.6-21.4,21.4-21.4s21.4,9.6,21.4,21.4C51.2,105.3,41.6,114.8,29.9,114.8 M51.6,78.9c-4.9-7.3-13-11.7-21.8-11.7h-1
						l-1.2-10.2c9.9-1.5,18.7-7.1,24.1-15.5L66,49c-3.2,6.9-3.1,14.9,0.1,21.8L51.6,78.9z M68.6,59.7c0-11.8,9.6-21.4,21.4-21.4
						c11.8,0,21.4,9.6,21.4,21.4c0,11.8-9.6,21.4-21.4,21.4c0,0,0,0,0,0C78.2,81,68.6,71.5,68.6,59.7"/>
				</g>
			</g>
		</g>
	</g>
</g>
</svg>
