<svg xmlns="http://www.w3.org/2000/svg" xmlns:xlink="http://www.w3.org/1999/xlink" viewBox="0 0 122.166 132.157"><defs><style>.a{fill:#913f97;}.b{clip-path:url(#a);}</style><clipPath id="a"><path class="a" d="M0,108.93H122.166V-23.227H0Z" transform="translate(0 23.227)"/></clipPath></defs><g transform="translate(-1115 -433)"><g transform="translate(1115 433)"><g class="b" transform="translate(0 0)"><g transform="translate(25.916 7.253)"><path class="a" d="M4.237,11.344A2.49,2.49,0,0,0,8.726,9.187L3.833-1.009A2.5,2.5,0,0,0,.51-2.175,2.487,2.487,0,0,0-.656,1.148Z" transform="translate(0.903 2.419)"/></g><g transform="translate(0.529 93.34)"><path class="a" d="M6.928.58-.748,8.256a2.5,2.5,0,0,0,0,3.528,2.489,2.489,0,0,0,1.758.723,2.474,2.474,0,0,0,1.764-.728L10.45,4.1a2.49,2.49,0,0,0,0-3.522,2.554,2.554,0,0,0-3.522,0" transform="translate(1.477 0.124)"/></g><g transform="translate(0.529 26.19)"><path class="a" d="M6.928,9.827A2.488,2.488,0,0,0,10.45,6.311L2.774-1.37a2.5,2.5,0,0,0-3.522,0,2.49,2.49,0,0,0,0,3.522Z" transform="translate(1.477 2.095)"/></g><g transform="translate(108.98 26.189)"><path class="a" d="M2.049,10.431A2.5,2.5,0,0,0,3.813,9.7l7.676-7.681A2.451,2.451,0,0,0,12.217.264a2.451,2.451,0,0,0-.728-1.758,2.49,2.49,0,0,0-3.522,0L.291,6.181a2.493,2.493,0,0,0,0,3.522,2.475,2.475,0,0,0,1.758.728" transform="translate(0.437 2.224)"/></g><g transform="translate(58.596 0.003)"><path class="a" d="M2.049,12.306A2.494,2.494,0,0,0,4.542,9.82V-.132A2.5,2.5,0,0,0,2.049-2.624,2.49,2.49,0,0,0-.437-.132V9.82a2.489,2.489,0,0,0,2.486,2.486" transform="translate(0.437 2.624)"/></g><g transform="translate(86.37 7.253)"><path class="a" d="M1.168,12.305a2.438,2.438,0,0,0,1.075.245A2.509,2.509,0,0,0,4.49,11.139L9.378.943A2.487,2.487,0,0,0,8.212-2.38,2.5,2.5,0,0,0,4.889-1.214L0,8.982a2.451,2.451,0,0,0-.108,1.9,2.472,2.472,0,0,0,1.275,1.422" transform="translate(0.249 2.624)"/></g><g transform="translate(58.594 117.227)"><path class="a" d="M2.049,0A2.489,2.489,0,0,0-.437,2.486v9.957a2.486,2.486,0,1,0,4.973,0V2.486A2.489,2.489,0,0,0,2.049,0" transform="translate(0.437 0)"/></g><g transform="translate(50.3 55.229)"><path class="a" d="M8.887,0A10.779,10.779,0,1,0,19.669,10.776,10.793,10.793,0,0,0,8.887,0m5.8,10.776a5.8,5.8,0,1,1-5.8-5.8,5.813,5.813,0,0,1,5.8,5.8" transform="translate(1.895)"/></g><g transform="translate(35.148 40.072)"><path class="a" d="M21.376,0A25.937,25.937,0,1,0,47.31,25.934,25.966,25.966,0,0,0,21.376,0M42.332,25.934A20.956,20.956,0,1,1,21.376,4.979,20.983,20.983,0,0,1,42.332,25.934" transform="translate(4.558)"/></g><g transform="translate(0 26.854)"><path class="a" d="M100.309,31.079A119.4,119.4,0,0,0,82.75,12.314,90.583,90.583,0,0,0,63.593-.647a54.342,54.342,0,0,0-23.9-5.98A54.388,54.388,0,0,0,15.787-.647,90.7,90.7,0,0,0-3.365,12.314,118.191,118.191,0,0,0-20.924,31.079a2.487,2.487,0,0,0,0,2.9A119.211,119.211,0,0,0-3.365,52.74,90.62,90.62,0,0,0,15.793,65.7a54.26,54.26,0,0,0,23.9,5.986,54.256,54.256,0,0,0,23.9-5.986A90.62,90.62,0,0,0,82.75,52.74a120.48,120.48,0,0,0,17.559-18.765,2.487,2.487,0,0,0,0-2.9M95.16,32.525A119.875,119.875,0,0,1,79.433,49.031C70.091,57.093,55.616,66.7,39.7,66.7S9.295,57.093-.048,49.031A120.478,120.478,0,0,1-15.78,32.525,120.4,120.4,0,0,1-.11,16.075C9.244,7.99,23.741-1.648,39.7-1.648c15.92,0,30.395,9.61,39.738,17.673a120.688,120.688,0,0,1,15.727,16.5" transform="translate(21.389 6.627)"/></g><g transform="translate(25.916 109.734)"><path class="a" d="M6.973.2A2.5,2.5,0,0,0,3.65,1.367l-4.893,10.2A2.5,2.5,0,0,0-.071,14.892,2.507,2.507,0,0,0,3.252,13.72l4.893-10.2A2.5,2.5,0,0,0,6.973.2" transform="translate(1.487 0.043)"/></g><g transform="translate(86.375 109.733)"><path class="a" d="M3.9,1.165A2.49,2.49,0,1,0-.587,3.322l4.893,10.2a2.5,2.5,0,0,0,2.242,1.411,2.438,2.438,0,0,0,1.075-.245A2.5,2.5,0,0,0,8.8,11.361Z" transform="translate(0.832 0.248)"/></g><g transform="translate(108.976 93.34)"><path class="a" d="M3.5.58A2.554,2.554,0,0,0-.018.58a2.49,2.49,0,0,0,0,3.522l7.676,7.676A2.49,2.49,0,0,0,11.18,8.256Z" transform="translate(0.747 0.124)"/></g></g></g></g></svg>