<svg xmlns="http://www.w3.org/2000/svg" xmlns:xlink="http://www.w3.org/1999/xlink" viewBox="0 0 50.542 50.542"><defs><style>.a{fill:none;}.b{clip-path:url(#a);}.c{fill:#2b2e34;}</style><clipPath id="a"><path class="a" d="M0,26.333H50.542V-24.209H0Z" transform="translate(0 24.209)"/></clipPath></defs><g class="b" transform="translate(0 0)"><g transform="translate(0 0.001)"><path class="c" d="M23.459,0a5.514,5.514,0,0,0-4.846,8.144L9.582,17.176a7.314,7.314,0,0,0-9,0l-7.048-7.044A3.593,3.593,0,0,0-5.942,8.27,3.683,3.683,0,0,0-9.623,4.6,3.68,3.68,0,0,0-13.3,8.27a3.68,3.68,0,0,0,3.674,3.674,3.628,3.628,0,0,0,1.858-.52l7.048,7.048a7.306,7.306,0,0,0,0,9L-12.356,39.114a5.477,5.477,0,0,0-3.7-1.436,5.518,5.518,0,0,0-5.514,5.514,5.517,5.517,0,0,0,5.514,5.51,5.522,5.522,0,0,0,5.516-5.51,5.473,5.473,0,0,0-.668-2.628L.58,28.771A7.268,7.268,0,0,0,4.164,30.26V39.6A5.512,5.512,0,1,0,6,39.6V30.26a7.268,7.268,0,0,0,3.585-1.489l7.044,7.048a3.628,3.628,0,0,0-.52,1.858A3.674,3.674,0,1,0,19.785,34a3.6,3.6,0,0,0-1.854.52l-7.048-7.048a7.3,7.3,0,0,0,0-9l8.879-8.879A5.51,5.51,0,1,0,23.459,0" transform="translate(21.567)"/></g></g></svg>