<svg xmlns="http://www.w3.org/2000/svg" xmlns:xlink="http://www.w3.org/1999/xlink" viewBox="0 0 53.644 60.466"><defs><style>.a{fill:none;}.b{clip-path:url(#a);}.c{fill:#2b2e34;}</style><clipPath id="a"><path class="a" d="M0,35.914H53.644V-24.552H0Z" transform="translate(0 24.552)"/></clipPath></defs><g class="b" transform="translate(0 0)"><g transform="translate(0 0.001)"><path class="c" d="M31.834,8.281a.955.955,0,0,0-.475-.559L27.946,5.978l2.293-4.44A.951.951,0,0,0,30.3.8a.962.962,0,0,0-.475-.559L23.316-3.077a.96.96,0,0,0-1.288.414L19.41,2.412a1.06,1.06,0,0,0-.15.207,1.067,1.067,0,0,0-.079.236L9.7,21.235H9.034l.155-14.57A1.011,1.011,0,0,0,9.1,6.242L5.2-1.9l-.064-2.83a.967.967,0,0,0-.98-.933.955.955,0,0,0-.933.978l.047,2.047a.993.993,0,0,0-.106.177l-3.79,9.1A.983.983,0,0,0-.7,7.012V21.235H-2.972l-8-14.144a.986.986,0,0,0-.293-.32l-9-6.164A.952.952,0,0,0-21.307.582a.956.956,0,0,0-.448.941l1.448,10.972a.906.906,0,0,0,.121.355l4.859,8.388a.947.947,0,0,0-.682.305.945.945,0,0,0-.251.724l1.928,24.514h-.707a.958.958,0,0,0-.958.958v6.108a.957.957,0,0,0,.958.956H19.676a.957.957,0,0,0,.958-.956V47.739a.958.958,0,0,0-.958-.958h-.707L20.9,22.267a.949.949,0,0,0-.83-1.02l7-13.567L29.63,8.988,23.582,20.7a.957.957,0,1,0,1.7.879L31.773,9.012a.945.945,0,0,0,.062-.731M23.294-.94l4.8,2.453-1.854,3.6-4.8-2.453ZM5.15,21.235,4.983,8.729a.815.815,0,0,0-.022-.19l2.3-.118L7.121,21.235ZM4.106.252l3,6.26L1.38,6.8ZM1.213,8.729l1.867-.094a.647.647,0,0,0-.01.121l.165,12.479H1.213ZM-13.116,21.235l-4.5-7.77,1.978-1.278a1.035,1.035,0,0,0,.1.249l5.256,8.8Zm5.063,0L-13.9,11.453a.926.926,0,0,0-.219-.249l2.4-1.544,6.546,11.575ZM-12.771,8.059l-5.706,3.679-1.1-8.339Zm31.489,44.83h-32.8V48.7h32.8Zm-31.129-6.108-1.859-23.633H18.907L17.048,46.781ZM17.92,21.235H11.854L20.56,4.358l4.8,2.453Z" transform="translate(21.763 5.661)"/></g></g></svg>