<svg xmlns="http://www.w3.org/2000/svg" xmlns:xlink="http://www.w3.org/1999/xlink" viewBox="0 0 116.807 131.661"><defs><style>.a{fill:#913f97;}.b{clip-path:url(#a);}</style><clipPath id="a"><path class="a" d="M0,107.109H116.807V-24.552H0Z" transform="translate(0 24.552)"/></clipPath></defs><g class="b" transform="translate(0 0)"><g transform="translate(0.001 0.003)"><path class="a" d="M94.944,24.7a2.079,2.079,0,0,0-1.035-1.217l-7.432-3.8,4.993-9.669a2.071,2.071,0,0,0,.134-1.6A2.094,2.094,0,0,0,90.568,7.2L76.395-.035a2.091,2.091,0,0,0-2.8.9l-5.7,11.052a1.8,1.8,0,0,0-.5.965L46.745,52.9H45.3l.338-31.725a2.2,2.2,0,0,0-.2-.922L36.942,2.533,36.8-3.628a2.1,2.1,0,0,0-2.134-2.032,2.08,2.08,0,0,0-2.032,2.129l.1,4.456a2.162,2.162,0,0,0-.231.386L24.255,21.136a2.141,2.141,0,0,0-.156.8V52.9H19.155L1.737,22.107a2.148,2.148,0,0,0-.638-.7L-18.5,7.987a2.074,2.074,0,0,0-2.268-.054,2.081,2.081,0,0,0-.976,2.048l3.153,23.89a1.973,1.973,0,0,0,.263.772l10.58,18.265a2.061,2.061,0,0,0-1.485.665,2.057,2.057,0,0,0-.547,1.577l4.2,53.379H-7.122a2.085,2.085,0,0,0-2.086,2.086v13.3A2.084,2.084,0,0,0-7.122,126H68.469a2.084,2.084,0,0,0,2.086-2.081v-13.3a2.085,2.085,0,0,0-2.086-2.086H66.93l4.2-53.379a2.067,2.067,0,0,0-1.807-2.22L84.567,23.388l5.577,2.848L76.974,51.729a2.083,2.083,0,1,0,3.7,1.914L94.81,26.29a2.058,2.058,0,0,0,.134-1.593M76.346,4.619,86.8,9.961,82.765,17.79,72.308,12.449ZM36.84,52.9l-.365-27.231a1.774,1.774,0,0,0-.048-.413l5-.257L41.13,52.9ZM34.567,7.215l6.526,13.632-12.463.633Zm-6.3,18.458,4.065-.2a1.41,1.41,0,0,0-.021.263L32.668,52.9h-4.4ZM-2.934,52.9l-9.8-16.919L-8.43,33.2a2.253,2.253,0,0,0,.22.542L3.233,52.9Zm11.025,0L-4.634,31.6a2.017,2.017,0,0,0-.477-.542L.107,27.7,14.361,52.9ZM-2.183,24.214l-12.425,8.012L-17,14.068Zm68.566,97.615H-5.041V112.7H66.383ZM-1.4,108.53-5.449,57.071H66.8L62.747,108.53ZM64.645,52.9H51.437l18.957-36.75L80.851,21.5Z" transform="translate(21.763 5.661)"/></g></g></svg>