<svg xmlns="http://www.w3.org/2000/svg" xmlns:xlink="http://www.w3.org/1999/xlink" viewBox="0 0 174 174"><defs><style>.a{fill:#898989;}.b{fill:#fff;}.c{clip-path:url(#a);}</style><clipPath id="a"><path class="a" d="M0,85.931H105.5V-23.227H0Z" transform="translate(0 23.227)"/></clipPath></defs><g transform="translate(7734 -5511)"><rect class="b" width="174" height="174" transform="translate(-7734 5511)"/><g transform="translate(-7700 5543)"><g class="c" transform="translate(0 0)"><g transform="translate(-0.002 0.001)"><path class="a" d="M82.335,60.648a14.921,14.921,0,0,0,.019-9.042l-2.571-8.191a14.4,14.4,0,0,0-6.307-8.093A14.346,14.346,0,0,0,70.84,25.227l-4.888-6.965a14.075,14.075,0,0,0-8.4-5.7C57.089,9.013,55.4,6.367,52,3.815L45.279-1.246a13.756,13.756,0,0,0-9.709-2.74,13.691,13.691,0,0,0-7.877-6.547l-7.909-2.66a13.712,13.712,0,0,0-10.076.508A14.028,14.028,0,0,0,.275-16.393H-8.039A14.458,14.458,0,0,0-22.255-1.735V82.7a9.938,9.938,0,0,0,9.78,10.062H73.472A9.934,9.934,0,0,0,83.247,82.7V64.9a10.237,10.237,0,0,0-.912-4.248M70.911,38.071A10.775,10.775,0,0,1,76.3,44.51L78.867,52.7a11.293,11.293,0,0,1,.5,4.173,9.545,9.545,0,0,0-5.893-2.035H10.835L63.01,37.455a10.19,10.19,0,0,1,7.9.616m-14.9-22.084a10.408,10.408,0,0,1,6.946,4.371l4.888,6.965a10.906,10.906,0,0,1,2.073,6.457,13.726,13.726,0,0,0-8.065.211L-.731,54.835H-.782L48.249,17.928a10.18,10.18,0,0,1,7.764-1.941M34.86-.189s.014,0,.019,0c.146-.028.291-.056.437-.08a10.187,10.187,0,0,1,7.764,1.946l6.73,5.062c2.34,1.762,3.515,3.341,3.981,5.484a13.808,13.808,0,0,0-7.736,2.792l-52.7,39.66a1.525,1.525,0,0,0-.183.164h-.381L28.374,4.1A10.441,10.441,0,0,1,34.86-.189M10.06-8.751a1.827,1.827,0,0,0,.4-.23c.094-.052.188-.1.282-.15a10.121,10.121,0,0,1,7.872-.6l7.909,2.66A10.221,10.221,0,0,1,31.838-3.1,14.136,14.136,0,0,0,25.38,2L-11.676,54.835h-1.029L5.337-2.675A10.806,10.806,0,0,1,10.06-8.751M-18.6-1.735a10.8,10.8,0,0,1,10.56-11H.275A10.29,10.29,0,0,1,6.441-10.65,14.493,14.493,0,0,0,1.849-3.765L-16.709,55.389a1.9,1.9,0,0,0-.08.479A9.471,9.471,0,0,0-18.6,57.058ZM79.6,82.7a6.274,6.274,0,0,1-6.124,6.406H-12.475A6.274,6.274,0,0,1-18.6,82.7V64.9a6.278,6.278,0,0,1,6.124-6.41H73.472A6.278,6.278,0,0,1,79.6,64.9Z" transform="translate(22.255 16.393)"/></g><g transform="translate(10.739 80.33)"><path class="a" d="M5.183.314c-5.87,1.781-7.35,6.847-6.246,10.8a8.663,8.663,0,0,0,8.177,6.5,8.939,8.939,0,0,0,2.246-.291,8.224,8.224,0,0,0,6.114-5.959,9.8,9.8,0,0,0-2.5-9.324A7.6,7.6,0,0,0,5.183.314m6.758,10.118a4.544,4.544,0,0,1-3.487,3.356,4.84,4.84,0,0,1-6-3.652c-.616-2.2,0-5.179,3.783-6.326a5.272,5.272,0,0,1,1.513-.24,3.748,3.748,0,0,1,2.683,1.1,6.134,6.134,0,0,1,1.5,5.762" transform="translate(1.401 0.085)"/></g></g></g></g></svg>