<svg xmlns="http://www.w3.org/2000/svg" xmlns:xlink="http://www.w3.org/1999/xlink" viewBox="0 0 48.452 50.131"><defs><style>.a{fill:none;}.b{clip-path:url(#a);}.c{fill:#2b2e34;}</style><clipPath id="a"><path class="a" d="M0,26.9H48.452V-23.227H0Z" transform="translate(0 23.227)"/></clipPath></defs><g class="b" transform="translate(0 0)"><g transform="translate(-0.001 0.001)"><path class="c" d="M25.778,18.988a6.853,6.853,0,0,0,.009-4.153l-1.181-3.762a6.611,6.611,0,0,0-2.9-3.717A6.588,6.588,0,0,0,20.5,2.721l-2.245-3.2A6.464,6.464,0,0,0,14.4-3.1a5.692,5.692,0,0,0-2.547-4.017L8.76-9.437A6.318,6.318,0,0,0,4.3-10.7,6.288,6.288,0,0,0,.684-13.7l-3.632-1.222a6.3,6.3,0,0,0-4.627.233,6.442,6.442,0,0,0-4.332-1.7h-3.818a6.64,6.64,0,0,0-6.529,6.732V29.117a4.564,4.564,0,0,0,4.491,4.621H21.708A4.562,4.562,0,0,0,26.2,29.117V20.939a4.7,4.7,0,0,0-.419-1.951M20.531,8.62A4.949,4.949,0,0,1,23,11.577l1.181,3.76a5.186,5.186,0,0,1,.229,1.917,4.384,4.384,0,0,0-2.707-.935H-7.058L16.9,8.337a4.68,4.68,0,0,1,3.628.283M13.69-1.522A4.78,4.78,0,0,1,16.88.485l2.245,3.2a5.009,5.009,0,0,1,.952,2.966,6.3,6.3,0,0,0-3.7.1L-12.37,16.318h-.024L10.124-.631a4.675,4.675,0,0,1,3.566-.891M3.975-8.951l.009,0c.067-.013.134-.026.2-.037A4.679,4.679,0,0,1,7.75-8.1l3.091,2.324a4.159,4.159,0,0,1,1.828,2.519A6.341,6.341,0,0,0,9.116-1.971l-24.2,18.214a.7.7,0,0,0-.084.076h-.175L1-6.983A4.8,4.8,0,0,1,3.975-8.951M-7.414-12.884a.839.839,0,0,0,.186-.106c.043-.024.086-.047.13-.069a4.648,4.648,0,0,1,3.615-.274L.148-12.111a4.694,4.694,0,0,1,2.439,1.824A6.492,6.492,0,0,0-.378-7.945L-17.4,16.318h-.473l8.286-26.411a4.963,4.963,0,0,1,2.169-2.791M-20.576-9.661a4.96,4.96,0,0,1,4.85-5.053h3.818a4.726,4.726,0,0,1,2.832.958,6.656,6.656,0,0,0-2.109,3.162l-8.523,27.167a.87.87,0,0,0-.037.22,4.35,4.35,0,0,0-.831.546Zm45.1,38.778a2.881,2.881,0,0,1-2.812,2.942H-17.764a2.881,2.881,0,0,1-2.812-2.942V20.939A2.883,2.883,0,0,1-17.764,18H21.708a2.883,2.883,0,0,1,2.812,2.944Z" transform="translate(22.255 16.393)"/></g><g transform="translate(4.932 36.892)"><path class="c" d="M1.623.1A3.938,3.938,0,0,0-1.246,5.06,3.979,3.979,0,0,0,2.51,8.045a4.105,4.105,0,0,0,1.032-.134A3.777,3.777,0,0,0,6.349,5.175,4.5,4.5,0,0,0,5.2.893,3.491,3.491,0,0,0,1.623.1m3.1,4.647a2.087,2.087,0,0,1-1.6,1.541A2.223,2.223,0,0,1,.371,4.609,2.275,2.275,0,0,1,2.108,1.7a2.421,2.421,0,0,1,.695-.11A1.721,1.721,0,0,1,4.036,2.1a2.817,2.817,0,0,1,.691,2.646" transform="translate(1.401 0.085)"/></g></g></svg>