<?xml version="1.0" encoding="utf-8"?>
<!-- Generator: Adobe Illustrator 22.1.0, SVG Export Plug-In . SVG Version: 6.00 Build 0)  -->
<svg version="1.1" id="Layer_1" xmlns="http://www.w3.org/2000/svg" xmlns:xlink="http://www.w3.org/1999/xlink" x="0px" y="0px"
	 viewBox="0 0 174 174" style="enable-background:new 0 0 174 174;" xml:space="preserve">
<style type="text/css">
	.st0{fill:#FFFFFF;}
	.st1{clip-path:url(#SVGID_2_);}
	.st2{fill:#898989;}
</style>
<g transform="translate(7734 -5511)">
	<rect x="-7734" y="5511" class="st0" width="174" height="174"/>
	<g transform="translate(-7700 5543)">
		<g>
			<defs>
				<rect id="SVGID_1_" x="-10.8" y="-10" width="127.6" height="132"/>
			</defs>
			<clipPath id="SVGID_2_">
				<use xlink:href="#SVGID_1_"  style="overflow:visible;"/>
			</clipPath>
			<g transform="translate(0 0)" class="st1">
				<g transform="translate(-0.002 0.001)">
					<path class="st2" d="M115.7,83.2c1.1-3.6,1.1-7.4,0-10.9l-3.1-9.9c-1.3-4.1-4-7.6-7.6-9.8c0.5-4.3-0.6-8.7-3.2-12.2l-5.9-8.4
						c-2.4-3.5-6-5.9-10.2-6.9c-0.6-4.3-2.6-7.5-6.7-10.6l-8.1-6.1C67.5,5.8,63.3,4.6,59.1,5c-2-3.8-5.4-6.6-9.5-7.9L40-6.1
						c-4-1.4-8.3-1.1-12.2,0.6C24.7-8.4,20.7-10,16.5-10H6.4C-3.2-9.8-10.9-1.9-10.8,7.7v102.1c-0.1,6.6,5.2,12.1,11.8,12.2H105
						c6.6-0.1,11.9-5.5,11.8-12.2V88.3C116.8,86.5,116.4,84.8,115.7,83.2 M101.9,55.9c3.1,1.6,5.5,4.4,6.5,7.8l3.1,9.9
						c0.5,1.6,0.7,3.3,0.6,5c-2-1.6-4.5-2.5-7.1-2.5H29.2l63.1-21C95.5,54.1,98.9,54.3,101.9,55.9 M83.9,29.2
						c3.4,0.5,6.4,2.4,8.4,5.3l5.9,8.4c1.6,2.3,2.5,5,2.5,7.8c-3.2-0.9-6.6-0.8-9.8,0.3L15.2,76.1h-0.1l59.3-44.6
						C77.1,29.5,80.5,28.6,83.9,29.2 M58.3,9.6C58.3,9.6,58.3,9.6,58.3,9.6c0.2,0,0.4-0.1,0.6-0.1c3.3-0.5,6.7,0.3,9.4,2.4l8.1,6.1
						c2.8,2.1,4.3,4,4.8,6.6c-3.4,0.1-6.7,1.3-9.4,3.4l-63.7,48C8,76,7.9,76.1,7.9,76.1H7.4l43-61.4C52.3,12.1,55.1,10.2,58.3,9.6
						 M28.3-0.8c0.2-0.1,0.3-0.2,0.5-0.3c0.1-0.1,0.2-0.1,0.3-0.2c2.9-1.5,6.4-1.8,9.5-0.7l9.6,3.2c2.6,0.8,4.9,2.5,6.4,4.8
						c-3.2,1.2-5.9,3.4-7.8,6.2L2,76.1H0.8L22.6,6.6C23.5,3.5,25.5,0.9,28.3-0.8 M-6.4,7.7C-6.5,0.5-0.8-5.4,6.4-5.6h10.1
						c2.7,0,5.3,0.9,7.5,2.5c-2.6,2.2-4.6,5.1-5.6,8.3L-4.1,76.8c-0.1,0.2-0.1,0.4-0.1,0.6c-0.8,0.4-1.5,0.9-2.2,1.4V7.7z
						 M112.4,109.8c0.1,4.2-3.2,7.6-7.4,7.7H1c-4.2-0.1-7.5-3.6-7.4-7.7V88.3c-0.1-4.2,3.2-7.7,7.4-7.8H105c4.2,0.1,7.5,3.6,7.4,7.8
						V109.8z"/>
				</g>
				<g transform="translate(10.739 80.33)">
					<path class="st2" d="M-0.6,7.3c-7.1,2.2-8.9,8.3-7.6,13.1c1.2,4.5,5.2,7.7,9.9,7.9c0.9,0,1.8-0.1,2.7-0.4
						c3.6-0.8,6.5-3.6,7.4-7.2c1-4-0.1-8.3-3-11.3C6.3,7,2.7,6.2-0.6,7.3 M7.6,19.5c-0.5,2.1-2.1,3.6-4.2,4.1
						c-3.1,0.8-6.3-1-7.2-4.1c0-0.1-0.1-0.2-0.1-0.3c-0.7-2.7,0-6.3,4.6-7.7c0.6-0.2,1.2-0.3,1.8-0.3c1.2,0,2.4,0.5,3.2,1.3
						C7.5,14.4,8.2,17.1,7.6,19.5"/>
				</g>
			</g>
		</g>
	</g>
</g>
</svg>
