<svg xmlns="http://www.w3.org/2000/svg" xmlns:xlink="http://www.w3.org/1999/xlink" viewBox="0 0 108.21 108.192"><defs><style>.a{fill:#913f97;}.b{clip-path:url(#a);}</style><clipPath id="a"><path class="a" d="M0,83.869H108.21V-24.323H0Z" transform="translate(0 24.323)"/></clipPath></defs><g class="b" transform="translate(0 0)"><g transform="translate(20.315 12.142)"><path class="a" d="M6.151,0a8.122,8.122,0,0,1,7.935,8.3,8.122,8.122,0,0,1-7.935,8.3A8.122,8.122,0,0,1-1.784,8.3,8.122,8.122,0,0,1,6.151,0" transform="translate(1.784)"/></g><g transform="translate(12.6 28.971)"><path class="a" d="M15.393,0,11.305,3.127,7.217,0C6.016.24-3.6,2.647-4.441,10.1A2.091,2.091,0,0,0-3.6,12.023c1.8,1.2,6.25,3.6,14.906,3.6s13.1-2.4,14.906-3.6a2.081,2.081,0,0,0,.841-1.926C26.091,2.647,16.474.24,15.393,0" transform="translate(4.464)"/></g><g transform="translate(77.779 45.921)"><path class="a" d="M4.565,0a6.078,6.078,0,0,1,5.889,6.25A6.082,6.082,0,0,1,4.565,12.5,6.082,6.082,0,0,1-1.324,6.25,6.078,6.078,0,0,1,4.565,0" transform="translate(1.324)"/></g><g transform="translate(71.978 58.664)"><path class="a" d="M11.485,0,8.478,2.406,5.476,0C4.635.24-2.58,2.042-3.3,7.575a1.378,1.378,0,0,0,.6,1.441c1.321.961,4.688,2.642,11.178,2.642s9.857-1.8,11.183-2.642a1.378,1.378,0,0,0,.6-1.441C19.541,1.922,12.326.12,11.485,0" transform="translate(3.331)"/></g><g transform="translate(28.251 72.85)"><path class="a" d="M4.565,0a6.078,6.078,0,0,1,5.889,6.25A6.082,6.082,0,0,1,4.565,12.5,6.082,6.082,0,0,1-1.324,6.25,6.078,6.078,0,0,1,4.565,0" transform="translate(1.324)"/></g><g transform="translate(22.45 85.472)"><path class="a" d="M11.485,0,8.478,2.406,5.476,0C4.635.24-2.58,2.042-3.3,7.575a1.378,1.378,0,0,0,.6,1.441c1.321.961,4.688,2.642,11.178,2.642s9.857-1.8,11.183-2.642a1.378,1.378,0,0,0,.6-1.441C19.541,2.042,12.326.24,11.485,0" transform="translate(3.331)"/></g><g transform="translate(0 -0.001)"><path class="a" d="M83.683,71.849a7.7,7.7,0,0,0-9.016-5.529L70.7,56.343A21.615,21.615,0,1,0,41.248,26.167L29.7,19.917A28.388,28.388,0,0,0,32.592,7.533,26.916,26.916,0,0,0,31.15-1.243L43.289-4.486a7.8,7.8,0,0,0,7.7,3.363,7.729,7.729,0,0,0,6.49-8.772A7.735,7.735,0,0,0,48.7-16.389a7.776,7.776,0,0,0-6.494,8.656L29.829-4.366A28.25,28.25,0,0,0,4.1-20.837a28.424,28.424,0,0,0-28.37,28.37A28.422,28.422,0,0,0,4.1,35.9h.721l.961,8.656a21.608,21.608,0,1,0,25.848,21.16,21.138,21.138,0,0,0-2.046-9.136l11.783-6.614A21.551,21.551,0,0,0,59.28,59.585a21.8,21.8,0,0,0,8.3-1.681l3.843,9.857a7.744,7.744,0,1,0,12.264,4.088M-20.181,7.533A24.29,24.29,0,0,1,4.1-16.749,24.368,24.368,0,0,1,28.384,7.533,24.368,24.368,0,0,1,4.1,31.816,24.29,24.29,0,0,1-20.181,7.533M9.991,83.267a17.55,17.55,0,0,1,0-35.1,17.55,17.55,0,1,1,0,35.1M27.9,53.7A21.562,21.562,0,0,0,9.991,44.079H9.15l-.961-8.416A28.778,28.778,0,0,0,28.023,22.924l11.663,6.25a21.192,21.192,0,0,0,.12,17.913ZM41.848,37.95A17.552,17.552,0,1,1,59.4,55.5,17.574,17.574,0,0,1,41.848,37.95" transform="translate(24.269 20.837)"/></g></g></svg>