<?xml version="1.0" encoding="utf-8"?>
<!-- Generator: Adobe Illustrator 22.1.0, SVG Export Plug-In . SVG Version: 6.00 Build 0)  -->
<svg version="1.1" id="Layer_1" xmlns="http://www.w3.org/2000/svg" xmlns:xlink="http://www.w3.org/1999/xlink" x="0px" y="0px"
	 viewBox="0 0 174 174" style="enable-background:new 0 0 174 174;" xml:space="preserve">
<style type="text/css">
	.st0{fill:#FFFFFF;}
	.st1{fill:#898989;}
</style>
<g transform="translate(7117 -5421)">
	<rect x="-7117" y="5421" class="st0" width="174" height="174"/>
	<g>
		<g>
			<defs>
				<rect id="SVGID_1_" x="-14180.8" y="10895.2" width="131.5" height="131.5"/>
			</defs>
			<clipPath id="SVGID_2_">
				<use xlink:href="#SVGID_1_"  style="overflow:visible;"/>
			</clipPath>
		</g>
	</g>
</g>
<g transform="translate(-7085 5453)">
	<g transform="translate(0.001 0.002)">
		<path class="st1" d="M7223.4-5431.7c-7.9,0-14.3,6.4-14.3,14.3c0,2.4,0.6,4.7,1.7,6.8l-23.5,23.5c-6.9-5.4-16.5-5.4-23.4,0
			l-18.4-18.3c0.9-1.5,1.4-3.1,1.4-4.8c0-5.3-4.3-9.6-9.6-9.6c-5.3,0-9.6,4.3-9.6,9.6c0,5.3,4.3,9.6,9.6,9.6l0,0
			c1.7,0,3.4-0.5,4.8-1.4l18.3,18.3c-5.4,6.9-5.4,16.5,0,23.4l-30.2,30.3c-2.6-2.4-6.1-3.7-9.6-3.7c-7.9,0-14.3,6.4-14.3,14.3
			s6.4,14.3,14.3,14.3s14.3-6.4,14.4-14.3c0-2.4-0.6-4.7-1.7-6.8l30.7-30.7c2.7,2.1,5.9,3.5,9.3,3.9v24.3
			c-7.8,1.3-13.1,8.7-11.7,16.5c1.4,7.8,8.7,13.1,16.5,11.7c7.8-1.4,12.9-8.7,11.6-16.5c-1-6-5.7-10.7-11.7-11.7v-24.3
			c3.4-0.4,6.6-1.8,9.3-3.9l18.3,18.3c-0.9,1.5-1.3,3.1-1.4,4.8c0,5.3,4.3,9.6,9.6,9.6c5.3,0,9.6-4.3,9.6-9.6c0-5.3-4.3-9.6-9.6-9.6
			c-1.7,0-3.4,0.5-4.8,1.4l-18.3-18.3c5.4-6.9,5.4-16.5,0-23.4l23.1-23.1c5.9,5.3,14.9,4.9,20.3-1c5.3-5.9,4.9-14.9-1-20.3
			C7230.4-5430.4,7227-5431.8,7223.4-5431.7"/>
	</g>
</g>
</svg>
