<svg xmlns="http://www.w3.org/2000/svg" xmlns:xlink="http://www.w3.org/1999/xlink" viewBox="0 0 110.053 110.053"><defs><style>.a{fill:#898989;}.b{clip-path:url(#a);}</style><clipPath id="a"><path class="a" d="M0,85.844H110.053V-24.209H0Z" transform="translate(0 24.209)"/></clipPath></defs><g class="b"><g transform="translate(0.001 0.002)"><path class="a" d="M76.476,0A12.006,12.006,0,0,0,65.925,17.734L46.259,37.4a15.926,15.926,0,0,0-19.6-.009L11.309,22.052a7.824,7.824,0,0,0,1.146-4.046,8.008,8.008,0,1,0-8.015,8,7.9,7.9,0,0,0,4.046-1.132L23.834,40.223a15.909,15.909,0,0,0,0,19.6L-1.51,85.169a11.927,11.927,0,0,0-8.051-3.128A12.015,12.015,0,0,0-21.567,94.047a12.013,12.013,0,0,0,12.006,12,12.023,12.023,0,0,0,12.01-12A11.917,11.917,0,0,0,.995,88.324L26.657,62.648a15.825,15.825,0,0,0,7.805,3.241V86.223a12,12,0,1,0,4,0V65.889a15.825,15.825,0,0,0,7.805-3.241L61.606,78a7.9,7.9,0,0,0-1.132,4.046,8,8,0,1,0,8-8,7.843,7.843,0,0,0-4.037,1.132L49.091,59.825a15.892,15.892,0,0,0,0-19.6L68.425,20.889A12,12,0,1,0,76.476,0" transform="translate(21.567)"/></g></g></svg>