<svg xmlns="http://www.w3.org/2000/svg" xmlns:xlink="http://www.w3.org/1999/xlink" viewBox="0 0 49.696 49.687"><defs><style>.a{fill:none;}.b{clip-path:url(#a);}.c{fill:#2b2e34;}</style><clipPath id="a"><path class="a" d="M0,25.364H49.7V-24.323H0Z" transform="translate(0 24.323)"/></clipPath></defs><g class="b" transform="translate(0 0)"><g transform="translate(9.33 5.576)"><path class="c" d="M1.86,0A3.73,3.73,0,0,1,5.5,3.81,3.73,3.73,0,0,1,1.86,7.62,3.73,3.73,0,0,1-1.784,3.81,3.73,3.73,0,0,1,1.86,0" transform="translate(1.784)"/></g><g transform="translate(5.787 13.305)"><path class="c" d="M4.655,0,2.778,1.436.9,0C.349.11-4.068,1.215-4.454,4.637a.96.96,0,0,0,.386.885c.827.552,2.87,1.655,6.845,1.655S8.8,6.073,9.623,5.522a.956.956,0,0,0,.386-.885C9.568,1.215,5.152.11,4.655,0" transform="translate(4.464)"/></g><g transform="translate(35.72 21.089)"><path class="c" d="M1.381,0a2.791,2.791,0,0,1,2.7,2.87,2.793,2.793,0,0,1-2.7,2.872,2.793,2.793,0,0,1-2.7-2.872A2.791,2.791,0,0,1,1.381,0" transform="translate(1.324)"/></g><g transform="translate(33.056 26.942)"><path class="c" d="M3.473,0,2.093,1.105.714,0c-.386.11-3.7.938-4.03,3.479a.633.633,0,0,0,.276.662c.607.441,2.153,1.213,5.134,1.213A9.279,9.279,0,0,0,7.228,4.141.633.633,0,0,0,7.5,3.479C7.173.882,3.86.055,3.473,0" transform="translate(3.331)"/></g><g transform="translate(12.975 33.456)"><path class="c" d="M1.381,0a2.791,2.791,0,0,1,2.7,2.87,2.793,2.793,0,0,1-2.7,2.872,2.793,2.793,0,0,1-2.7-2.872A2.791,2.791,0,0,1,1.381,0" transform="translate(1.324)"/></g><g transform="translate(10.31 39.253)"><path class="c" d="M3.473,0,2.093,1.105.714,0c-.386.11-3.7.938-4.03,3.479a.633.633,0,0,0,.276.662c.607.441,2.153,1.213,5.134,1.213A9.279,9.279,0,0,0,7.228,4.141.633.633,0,0,0,7.5,3.479C7.173.938,3.86.11,3.473,0" transform="translate(3.331)"/></g><g transform="translate(0 -0.001)"><path class="c" d="M25.308,21.729a3.536,3.536,0,0,0-4.141-2.539l-1.822-4.582A9.92,9.92,0,0,0,14.156-3.777,9.989,9.989,0,0,0,5.82.749l-5.3-2.87A13.037,13.037,0,0,0,1.844-7.808a12.361,12.361,0,0,0-.662-4.03l5.575-1.489a3.581,3.581,0,0,0,3.534,1.544,3.549,3.549,0,0,0,2.98-4.028,3.552,3.552,0,0,0-4.028-2.983,3.571,3.571,0,0,0-2.983,3.975L.576-13.272A12.974,12.974,0,0,0-11.24-20.837,13.054,13.054,0,0,0-24.269-7.808,13.053,13.053,0,0,0-11.24,5.221h.331l.441,3.975a9.947,9.947,0,0,0-8,9.718A9.966,9.966,0,0,0-8.535,28.85,9.966,9.966,0,0,0,1.4,18.914a9.708,9.708,0,0,0-.94-4.2l5.411-3.038A9.9,9.9,0,0,0,14.1,16.1a10.01,10.01,0,0,0,3.81-.772l1.765,4.527a3.556,3.556,0,1,0,5.632,1.877m-47.7-29.537A11.155,11.155,0,0,1-11.24-18.96,11.191,11.191,0,0,1-.088-7.808,11.191,11.191,0,0,1-11.24,3.344,11.155,11.155,0,0,1-22.392-7.808M-8.535,26.973a8.067,8.067,0,0,1-8.059-8.059,8.1,8.1,0,0,1,8.059-8.061A8.107,8.107,0,0,1-.474,18.914a8.1,8.1,0,0,1-8.061,8.059M-.309,13.392A9.9,9.9,0,0,0-8.535,8.976h-.386l-.441-3.865A13.216,13.216,0,0,0-.254-.74L5.1,2.13a9.732,9.732,0,0,0,.055,8.226ZM6.1,6.161a8.061,8.061,0,1,1,8.061,8.061A8.071,8.071,0,0,1,6.1,6.161" transform="translate(24.269 20.837)"/></g></g></svg>