<svg xmlns="http://www.w3.org/2000/svg" xmlns:xlink="http://www.w3.org/1999/xlink" viewBox="0 0 56.105 60.693"><defs><style>.a{fill:none;}.b{clip-path:url(#a);}.c{fill:#2b2e34;}</style><clipPath id="a"><path class="a" d="M0,37.466H56.1V-23.227H0Z" transform="translate(0 23.227)"/></clipPath></defs><g class="b" transform="translate(0 0)"><g transform="translate(11.902 3.331)"><path class="c" d="M1.457,3.9a1.144,1.144,0,0,0,2.062-.99L1.272-1.771A1.146,1.146,0,0,0-.254-2.307,1.142,1.142,0,0,0-.79-.781Z" transform="translate(0.903 2.419)"/></g><g transform="translate(0.243 42.867)"><path class="c" d="M2.383.2-1.142,3.725a1.147,1.147,0,0,0,0,1.62,1.143,1.143,0,0,0,.807.332,1.136,1.136,0,0,0,.81-.334L4,1.817A1.143,1.143,0,0,0,4,.2,1.173,1.173,0,0,0,2.383.2" transform="translate(1.477 0.124)"/></g><g transform="translate(0.243 12.028)"><path class="c" d="M2.383,3.38A1.143,1.143,0,0,0,4,1.765L.475-1.762a1.148,1.148,0,0,0-1.617,0,1.143,1.143,0,0,0,0,1.617Z" transform="translate(1.477 2.095)"/></g><g transform="translate(50.049 12.027)"><path class="c" d="M.7,3.588a1.147,1.147,0,0,0,.81-.334L5.04-.274a1.126,1.126,0,0,0,.334-.807,1.126,1.126,0,0,0-.334-.807,1.143,1.143,0,0,0-1.617,0L-.1,1.636a1.145,1.145,0,0,0,0,1.617A1.137,1.137,0,0,0,.7,3.588" transform="translate(0.437 2.224)"/></g><g transform="translate(26.91 0.002)"><path class="c" d="M.7,4.233A1.145,1.145,0,0,0,1.849,3.091v-4.57A1.146,1.146,0,0,0,.7-2.624,1.144,1.144,0,0,0-.437-1.479v4.57A1.143,1.143,0,0,0,.7,4.233" transform="translate(0.437 2.624)"/></g><g transform="translate(39.666 3.331)"><path class="c" d="M.4,4.232A1.12,1.12,0,0,0,.9,4.345,1.152,1.152,0,0,0,1.928,3.7L4.172-.986a1.142,1.142,0,0,0-.536-1.526,1.148,1.148,0,0,0-1.526.536L-.134,2.706a1.126,1.126,0,0,0-.05.873A1.135,1.135,0,0,0,.4,4.232" transform="translate(0.249 2.624)"/></g><g transform="translate(26.909 53.836)"><path class="c" d="M.7,0A1.143,1.143,0,0,0-.437,1.142V5.715a1.142,1.142,0,1,0,2.284,0V1.142A1.143,1.143,0,0,0,.7,0" transform="translate(0.437 0)"/></g><g transform="translate(23.1 25.364)"><path class="c" d="M3.057,0A4.95,4.95,0,1,0,8.008,4.949,4.956,4.956,0,0,0,3.057,0M5.722,4.949A2.665,2.665,0,1,1,3.057,2.286,2.67,2.67,0,0,1,5.722,4.949" transform="translate(1.895)"/></g><g transform="translate(16.142 18.403)"><path class="c" d="M7.352,0a11.912,11.912,0,1,0,11.91,11.91A11.925,11.925,0,0,0,7.352,0m9.624,11.91A9.624,9.624,0,1,1,7.352,2.286a9.636,9.636,0,0,1,9.624,9.624" transform="translate(4.558)"/></g><g transform="translate(0 12.333)"><path class="c" d="M34.5,10.69a54.834,54.834,0,0,0-8.064-8.618,41.6,41.6,0,0,0-8.8-5.953A24.957,24.957,0,0,0,6.664-6.627,24.978,24.978,0,0,0-4.316-3.881a41.653,41.653,0,0,0-8.8,5.953,54.279,54.279,0,0,0-8.064,8.618,1.142,1.142,0,0,0,0,1.33,54.748,54.748,0,0,0,8.064,8.618,41.617,41.617,0,0,0,8.8,5.95A24.919,24.919,0,0,0,6.664,29.336a24.917,24.917,0,0,0,10.975-2.749,41.617,41.617,0,0,0,8.8-5.95A55.331,55.331,0,0,0,34.5,12.02a1.142,1.142,0,0,0,0-1.33m-2.365.664a55.053,55.053,0,0,1-7.222,7.58c-4.291,3.7-10.938,8.116-18.25,8.116S-7.3,22.637-11.588,18.934a55.329,55.329,0,0,1-7.225-7.58,55.294,55.294,0,0,1,7.2-7.554C-7.321.086-.663-4.341,6.664-4.341c7.311,0,13.959,4.413,18.25,8.116a55.426,55.426,0,0,1,7.222,7.578" transform="translate(21.389 6.627)"/></g><g transform="translate(11.902 50.395)"><path class="c" d="M2.4.069A1.147,1.147,0,0,0,.872.6L-1.375,5.287A1.149,1.149,0,0,0-.837,6.816a1.163,1.163,0,0,0,.494.11A1.152,1.152,0,0,0,.689,6.278L2.937,1.6A1.147,1.147,0,0,0,2.4.069" transform="translate(1.487 0.043)"/></g><g transform="translate(39.668 50.395)"><path class="c" d="M1.342.4a1.144,1.144,0,0,0-2.062.99L1.528,6.074a1.15,1.15,0,0,0,1.03.648,1.12,1.12,0,0,0,.494-.112,1.147,1.147,0,0,0,.538-1.526Z" transform="translate(0.832 0.248)"/></g><g transform="translate(50.047 42.867)"><path class="c" d="M1.205.2A1.173,1.173,0,0,0-.412.2a1.143,1.143,0,0,0,0,1.617L3.113,5.342A1.144,1.144,0,0,0,4.73,3.725Z" transform="translate(0.747 0.124)"/></g></g></svg>