<svg xmlns="http://www.w3.org/2000/svg" viewBox="0 0 62.52 62.52"><defs><style>.a{fill:#fff;}.b{fill:#d61c5b;}</style></defs><g transform="translate(905.52 -1889) rotate(90)"><g transform="translate(1889 843)"><path class="a" d="M31.26,0A31.26,31.26,0,1,0,62.52,31.26,31.261,31.261,0,0,0,31.26,0Zm0,56.659a25.4,25.4,0,1,1,25.4-25.4A25.428,25.428,0,0,1,31.26,56.659Z"/></g><g transform="translate(1912.674 860.217)"><g transform="translate(0)"><path class="b" d="M15.806,8.942,15.8,8.95a2.921,2.921,0,1,0-3.951,4.3l-.006.008,9.366,8.585-9.366,8.587.006.008a2.9,2.9,0,0,0-.955,2.151A2.921,2.921,0,0,0,15.8,34.746l.006.008L27.528,24.008a2.933,2.933,0,0,0,0-4.322Z" transform="translate(-10.894 -8.171)"/></g></g></g></svg>