<svg xmlns="http://www.w3.org/2000/svg" xmlns:xlink="http://www.w3.org/1999/xlink" viewBox="0 0 69.842 69.83"><defs><style>.a{fill:#5d5d5d;}.b{clip-path:url(#a);}</style><clipPath id="a"><path class="a" d="M0,45.507H69.842v-69.83H0Z" transform="translate(0 24.323)"/></clipPath></defs><g class="b" transform="translate(0 0)"><g transform="translate(13.112 7.837)"><path class="a" d="M3.338,0A5.242,5.242,0,0,1,8.46,5.354a5.242,5.242,0,0,1-5.122,5.354A5.242,5.242,0,0,1-1.784,5.354,5.242,5.242,0,0,1,3.338,0" transform="translate(1.784)"/></g><g transform="translate(8.133 18.699)"><path class="a" d="M8.352,0,5.714,2.018,3.075,0C2.3.155-3.907,1.708-4.449,6.517A1.35,1.35,0,0,0-3.907,7.76c1.163.775,4.034,2.325,9.621,2.325s8.458-1.55,9.621-2.325a1.343,1.343,0,0,0,.543-1.243C15.257,1.708,9.05.155,8.352,0" transform="translate(4.464)"/></g><g transform="translate(50.201 29.639)"><path class="a" d="M2.477,0a3.923,3.923,0,0,1,3.8,4.034,3.926,3.926,0,0,1-3.8,4.037,3.926,3.926,0,0,1-3.8-4.037A3.923,3.923,0,0,1,2.477,0" transform="translate(1.324)"/></g><g transform="translate(46.457 37.864)"><path class="a" d="M6.232,0,4.291,1.553,2.353,0c-.543.155-5.2,1.318-5.664,4.889a.889.889,0,0,0,.388.93C-2.071,6.44.1,7.525,4.291,7.525s6.362-1.163,7.218-1.705a.889.889,0,0,0,.388-.93C11.431,1.24,6.775.078,6.232,0" transform="translate(3.331)"/></g><g transform="translate(18.234 47.019)"><path class="a" d="M2.477,0a3.923,3.923,0,0,1,3.8,4.034,3.926,3.926,0,0,1-3.8,4.037,3.926,3.926,0,0,1-3.8-4.037A3.923,3.923,0,0,1,2.477,0" transform="translate(1.324)"/></g><g transform="translate(14.49 55.166)"><path class="a" d="M6.232,0,4.291,1.553,2.353,0c-.543.155-5.2,1.318-5.664,4.889a.889.889,0,0,0,.388.93C-2.071,6.44.1,7.525,4.291,7.525s6.362-1.163,7.218-1.705a.889.889,0,0,0,.388-.93C11.431,1.318,6.775.155,6.232,0" transform="translate(3.331)"/></g><g transform="translate(0 -0.001)"><path class="a" d="M45.406,38.985a4.97,4.97,0,0,0-5.819-3.569l-2.561-6.44A13.951,13.951,0,1,0,18.017,9.5l-7.45-4.034A18.323,18.323,0,0,0,12.43-2.526,17.372,17.372,0,0,0,11.5-8.19l7.835-2.093A5.033,5.033,0,0,0,24.3-8.113a4.988,4.988,0,0,0,4.189-5.662,4.992,4.992,0,0,0-5.662-4.192,5.019,5.019,0,0,0-4.192,5.587l-7.99,2.173A18.234,18.234,0,0,0-5.958-20.837,18.346,18.346,0,0,0-24.269-2.526,18.344,18.344,0,0,0-5.958,15.785h.465l.62,5.587A13.979,13.979,0,0,0-16.121,35.029,14.006,14.006,0,0,0-2.157,48.993,14.007,14.007,0,0,0,11.81,35.029a13.643,13.643,0,0,0-1.321-5.9l7.605-4.269A13.91,13.91,0,0,0,29.656,31.07a14.069,14.069,0,0,0,5.354-1.085l2.48,6.362a5,5,0,1,0,7.915,2.638M-21.631-2.526A15.678,15.678,0,0,1-5.958-18.2,15.728,15.728,0,0,1,9.715-2.526,15.728,15.728,0,0,1-5.958,13.147,15.678,15.678,0,0,1-21.631-2.526M-2.157,46.355A11.338,11.338,0,0,1-13.483,35.029,11.391,11.391,0,0,1-2.157,23.7,11.393,11.393,0,0,1,9.172,35.029,11.391,11.391,0,0,1-2.157,46.355M9.4,27.269A13.917,13.917,0,0,0-2.157,21.062H-2.7l-.62-5.432a18.574,18.574,0,0,0,12.8-8.222l7.528,4.034A13.678,13.678,0,0,0,17.087,23Zm9-10.163A11.329,11.329,0,1,1,29.734,28.434,11.343,11.343,0,0,1,18.4,17.106" transform="translate(24.269 20.837)"/></g></g></svg>