<svg xmlns="http://www.w3.org/2000/svg" xmlns:xlink="http://www.w3.org/1999/xlink" viewBox="0 0 75.391 84.979"><defs><style>.a{fill:#5d5d5d;}.b{clip-path:url(#a);}</style><clipPath id="a"><path class="a" d="M0,60.426H75.391V-24.552H0Z" transform="translate(0 24.552)"/></clipPath></defs><g class="b" transform="translate(0 0)"><g transform="translate(0.001 0.002)"><path class="a" d="M53.563,13.933a1.342,1.342,0,0,0-.668-.786L48.1,10.7l3.222-6.24a1.337,1.337,0,0,0,.087-1.031,1.352,1.352,0,0,0-.668-.786L41.591-2.03a1.35,1.35,0,0,0-1.81.581L36.1,5.685a1.489,1.489,0,0,0-.211.291,1.5,1.5,0,0,0-.111.332L22.454,32.138h-.935l.218-20.476a1.421,1.421,0,0,0-.132-.6L16.127-.372l-.09-3.977a1.359,1.359,0,0,0-1.378-1.312,1.342,1.342,0,0,0-1.312,1.374l.066,2.876a1.4,1.4,0,0,0-.149.249l-5.327,12.8a1.382,1.382,0,0,0-.1.516V32.138H4.646L-6.6,12.261a1.386,1.386,0,0,0-.412-.45l-12.65-8.663a1.338,1.338,0,0,0-1.464-.035,1.343,1.343,0,0,0-.63,1.322l2.035,15.419a1.274,1.274,0,0,0,.17.5l6.829,11.789a1.33,1.33,0,0,0-.959.429,1.328,1.328,0,0,0-.353,1.018l2.71,34.452h-.993a1.346,1.346,0,0,0-1.346,1.346v8.584a1.345,1.345,0,0,0,1.346,1.343H36.475a1.345,1.345,0,0,0,1.346-1.343V69.387a1.346,1.346,0,0,0-1.346-1.346h-.993l2.71-34.452a1.334,1.334,0,0,0-1.166-1.433l9.84-19.067,3.6,1.838-8.5,16.454a1.344,1.344,0,1,0,2.388,1.236l9.124-17.655a1.328,1.328,0,0,0,.087-1.028M41.559.974l6.749,3.447L45.7,9.475,38.953,6.028Zm-25.5,31.164-.235-17.576a1.145,1.145,0,0,0-.031-.267l3.226-.166-.19,18.008ZM14.594,2.649l4.212,8.8-8.044.408ZM10.527,14.563l2.624-.132a.91.91,0,0,0-.014.17l.232,17.538H10.527ZM-9.61,32.138l-6.327-10.92,2.779-1.8a1.454,1.454,0,0,0,.142.35L-5.63,32.138Zm7.116,0-8.213-13.748a1.3,1.3,0,0,0-.308-.35l3.368-2.17,9.2,16.267ZM-9.126,13.621l-8.019,5.171L-18.689,7.073Zm44.254,63h-46.1V70.734h46.1ZM-8.62,68.041l-2.613-33.213H35.4L32.782,68.041Zm42.627-35.9H25.482L37.718,8.419l6.749,3.447Z" transform="translate(21.763 5.661)"/></g></g></svg>