<svg xmlns="http://www.w3.org/2000/svg" xmlns:xlink="http://www.w3.org/1999/xlink" viewBox="0 0 68.094 70.454"><defs><style>.a{fill:#0f294b;}.b{clip-path:url(#a);}</style><clipPath id="a"><path class="a" d="M0,47.227H68.094V-23.227H0Z" transform="translate(0 23.227)"/></clipPath></defs><g transform="translate(0 0)"><g class="b" transform="translate(0 0)"><g transform="translate(-0.002 0.001)"><path class="a" d="M45.251,33.332a9.63,9.63,0,0,0,.012-5.836L43.6,22.208a9.291,9.291,0,0,0-4.071-5.223,9.259,9.259,0,0,0-1.7-6.515l-3.155-4.5A9.085,9.085,0,0,0,29.253,2.3,8,8,0,0,0,25.674-3.35L21.333-6.617a8.879,8.879,0,0,0-6.267-1.768,8.837,8.837,0,0,0-5.084-4.225L4.878-14.327a8.85,8.85,0,0,0-6.5.328,9.054,9.054,0,0,0-6.088-2.393h-5.366a9.332,9.332,0,0,0-9.176,9.461v54.5a6.414,6.414,0,0,0,6.312,6.494H39.53a6.412,6.412,0,0,0,6.309-6.494V36.074a6.607,6.607,0,0,0-.588-2.742M37.877,18.76a6.955,6.955,0,0,1,3.476,4.156L43.012,28.2a7.289,7.289,0,0,1,.322,2.694,6.161,6.161,0,0,0-3.8-1.313H-.9L32.778,18.362a6.577,6.577,0,0,1,5.1.4M28.261,4.506a6.717,6.717,0,0,1,4.483,2.821l3.155,4.5a7.039,7.039,0,0,1,1.338,4.168,8.859,8.859,0,0,0-5.205.137L-8.363,29.579H-8.4L23.25,5.759a6.57,6.57,0,0,1,5.011-1.253M14.608-5.934l.012,0c.094-.018.188-.036.282-.052a6.575,6.575,0,0,1,5.011,1.256l4.344,3.267a5.845,5.845,0,0,1,2.569,3.54,8.912,8.912,0,0,0-4.993,1.8l-34.015,25.6a.984.984,0,0,0-.118.106h-.246L10.422-3.168a6.739,6.739,0,0,1,4.186-2.766M-1.4-11.461a1.179,1.179,0,0,0,.261-.149c.061-.033.121-.067.182-.1a6.533,6.533,0,0,1,5.081-.385L9.23-10.375a6.6,6.6,0,0,1,3.428,2.563A9.124,9.124,0,0,0,8.49-4.521l-23.917,34.1h-.664L-4.447-7.539A6.974,6.974,0,0,1-1.4-11.461M-19.9-6.932a6.97,6.97,0,0,1,6.816-7.1h5.366a6.642,6.642,0,0,1,3.98,1.347A9.354,9.354,0,0,0-6.7-8.243l-11.978,38.18a1.223,1.223,0,0,0-.052.309,6.113,6.113,0,0,0-1.168.767Zm63.377,54.5A4.049,4.049,0,0,1,39.53,51.7H-15.943A4.049,4.049,0,0,1-19.9,47.567V36.074a4.052,4.052,0,0,1,3.952-4.137H39.53a4.052,4.052,0,0,1,3.952,4.137Z" transform="translate(22.255 16.393)"/></g><g transform="translate(6.931 51.847)"><path class="a" d="M2.848.173A5.534,5.534,0,0,0-1.183,7.146a5.591,5.591,0,0,0,5.278,4.2,5.77,5.77,0,0,0,1.45-.188A5.308,5.308,0,0,0,9.491,7.307,6.328,6.328,0,0,0,7.878,1.289,4.906,4.906,0,0,0,2.848.173M7.21,6.7A2.933,2.933,0,0,1,4.96,8.869a3.124,3.124,0,0,1-3.87-2.357A3.2,3.2,0,0,1,3.531,2.43a3.4,3.4,0,0,1,.977-.155,2.419,2.419,0,0,1,1.732.71A3.959,3.959,0,0,1,7.21,6.7" transform="translate(1.401 0.085)"/></g></g></g></svg>