<svg xmlns="http://www.w3.org/2000/svg" xmlns:xlink="http://www.w3.org/1999/xlink" viewBox="0 0 71.031 71.031"><defs><style>.a{fill:#5d5d5d;}.b{clip-path:url(#a);}</style><clipPath id="a"><path class="a" d="M0,46.822H71.031V-24.209H0Z" transform="translate(0 24.209)"/></clipPath></defs><g class="b"><g transform="translate(0.001 0.001)"><path class="a" d="M41.713,0A7.749,7.749,0,0,0,34.9,11.446L22.21,24.139a10.279,10.279,0,0,0-12.652-.006l-9.905-9.9a5.05,5.05,0,0,0,.739-2.611A5.175,5.175,0,0,0-4.781,6.458a5.172,5.172,0,0,0-5.164,5.164,5.172,5.172,0,0,0,5.164,5.164,5.1,5.1,0,0,0,2.611-.731l9.905,9.905a10.268,10.268,0,0,0,0,12.652L-8.622,54.97a7.7,7.7,0,0,0-5.2-2.019A7.755,7.755,0,0,0-21.567,60.7a7.754,7.754,0,0,0,7.749,7.743A7.76,7.76,0,0,0-6.066,60.7a7.691,7.691,0,0,0-.939-3.694L9.558,40.435A10.214,10.214,0,0,0,14.6,42.527V55.651a7.746,7.746,0,1,0,2.582,0V42.527a10.214,10.214,0,0,0,5.038-2.092l9.9,9.905a5.1,5.1,0,0,0-.731,2.611,5.164,5.164,0,1,0,5.164-5.164,5.062,5.062,0,0,0-2.605.731l-9.905-9.906a10.257,10.257,0,0,0,0-12.652L36.516,13.482A7.744,7.744,0,1,0,41.713,0" transform="translate(21.567)"/></g></g></svg>